<svg xmlns="http://www.w3.org/2000/svg" xmlns:xlink="http://www.w3.org/1999/xlink" xmlns:lucid="lucid" width="2401" height="1701"><g transform="translate(560.5 -199.5)" lucid:page-tab-id="0_0"><path d="M873.6 424.8a10.67 10.67 0 0 1 12.8 0l67.2 50.4a6 6 0 0 1 0 9.6l-67.2 50.4a10.67 10.67 0 0 1-12.8 0l-67.2-50.4a6 6 0 0 1 0-9.6z" stroke="#6db1ff" stroke-width="2" fill="#fff"/><use xlink:href="#a" transform="matrix(1,0,0,1,805,425) translate(9.038271604938274 59.48888888888888)"/><use xlink:href="#b" transform="matrix(1,0,0,1,805,425) translate(93.70370370370371 59.48888888888888)"/><path d="M1060 448a8 8 0 0 1 8-8h144a8 8 0 0 1 8 8v64a8 8 0 0 1-8 8h-144a8 8 0 0 1-8-8z" stroke="#000" fill="#6db1ff"/><use xlink:href="#c" transform="matrix(1,0,0,1,1072,452) translate(26.321913580246928 32.48888888888889)"/><path d="M993.94 480.98H958v-1.96h35.94zm47.06 0h-18.44v-1.96H1041z" stroke="#e81313" stroke-width=".05" fill="#e81313"/><path d="M958.03 480.98h-1.12l.1-.98-.1-.98h1.13z" fill="#e81313"/><path stroke="#e81313" stroke-width=".05" fill="#e81313"/><path d="M1056.26 480l-14.26 4.63v-9.26z" fill="#e81313"/><path d="M1059.42 480l-18.4 5.98v-11.96zm-16.45 3.3l10.14-3.3-10.13-3.3z" stroke="#e81313" stroke-width=".05" fill="#e81313"/><use xlink:href="#d" transform="matrix(1,0,0,1,993.9438280219106,466.53333333333336) translate(0.005000000000000782 17.955555555555552)"/><path d="M800 228a8 8 0 0 1 8-8h144a8 8 0 0 1 8 8v112c-26.72-20.04-43.36-20.04-53.44-20.04-16 0-37.28 20.04-53.28 20.04-9.92 0-26.72 0-53.28-20.04z" stroke="#000" fill="#9391ff"/><use xlink:href="#e" transform="matrix(1,0,0,1,805,225) translate(47.56790123456791 36.022222222222226)"/><use xlink:href="#f" transform="matrix(1,0,0,1,805,225) translate(20.229320987654333 62.95555555555555)"/><path d="M880 330.82v74.46" stroke="#3a414a" fill="none"/><path d="M880.48 330.84h-.96v-.28l.96-.48z" stroke="#3a414a" stroke-width=".05" fill="#3a414a"/><path d="M880 420.05l-4.63-14.27h9.26z" stroke="#3a414a" fill="#3a414a"/><path d="M800 628a8 8 0 0 1 8-8h144a8 8 0 0 1 8 8v64a8 8 0 0 1-8 8H808a8 8 0 0 1-8-8z" stroke="#000" fill="#6db1ff"/><use xlink:href="#g" transform="matrix(1,0,0,1,812,632) translate(40.59907407407408 32.48888888888889)"/><path d="M880.98 601H879v-8.62H881zm0-35.55H879v-26.12H881z" stroke="#008a0e" stroke-width=".05" fill="#008a0e"/><path d="M880 538.34l.98-.07v1.1H879v-1.1z" fill="#008a0e"/><path stroke="#008a0e" stroke-width=".05" fill="#008a0e"/><path d="M880 616.26L875.37 602h9.26z" fill="#008a0e"/><path d="M880 619.42l-5.98-18.4h11.96zm-3.3-16.45l3.3 10.14 3.3-10.13z" stroke="#008a0e" stroke-width=".05" fill="#008a0e"/><use xlink:href="#h" transform="matrix(1,0,0,1,861.7015432098765,565.4510516138985) translate(0.004999999999999005 17.955555555555552)"/><path d="M873.6 784.8a10.67 10.67 0 0 1 12.8 0l67.2 50.4a6 6 0 0 1 0 9.6l-67.2 50.4a10.67 10.67 0 0 1-12.8 0l-67.2-50.4a6 6 0 0 1 0-9.6z" stroke="#6db1ff" stroke-width="2" fill="#fff"/><use xlink:href="#i" transform="matrix(1,0,0,1,805,785) translate(8.633024691358045 59.48888888888888)"/><use xlink:href="#b" transform="matrix(1,0,0,1,805,785) translate(94.10895061728394 59.48888888888888)"/><path d="M880 701v64.28" stroke="#3a414a" fill="none"/><path d="M880.48 701h-.96v-.5h.96z" stroke="#3a414a" stroke-width=".05" fill="#3a414a"/><path d="M880 780.05l-4.63-14.27h9.26z" stroke="#3a414a" fill="#3a414a"/><path d="M760.48 827.96l.13 1.76.42 1.7.66 1.58.9 1.48 1.13 1.3 1.32 1.14 1.48.9 1.6.66 1.68.4 1.76.14H802V841h-30.54l-2-.16-1.97-.48-1.9-.78-1.73-1.06-1.55-1.32-1.32-1.55-1.06-1.74-.78-1.9-.48-1.97-.15-2v-62.8h1.95zm20.52-167h-9.46l-1.76.15-1.7.42-1.58.66-1.48.9-1.3 1.13-1.14 1.32-.9 1.48-.66 1.6-.4 1.68-.14 1.76v66.24h-1.96v-66.32l.16-2 .48-1.97.78-1.9 1.06-1.73 1.32-1.55 1.55-1.32 1.74-1.06 1.9-.78 1.97-.48 2-.15H781z" stroke="#fe7070" stroke-width=".05" fill="#fe7070"/><path d="M803 840l.1.98h-1.13V839h1.12z" fill="#fe7070"/><path stroke="#fe7070" stroke-width=".05" fill="#fe7070"/><path d="M796.26 660L782 664.63v-9.26z" fill="#fe7070"/><path d="M799.42 660l-18.4 5.98v-11.96zm-16.45 3.3l10.14-3.3-10.13-3.3z" stroke="#fe7070" stroke-width=".05" fill="#fe7070"/><use xlink:href="#j" transform="matrix(1,0,0,1,714.9228895061723,738.2811719780894) translate(0.005000000000002558 17.955555555555552)"/><use xlink:href="#k" transform="matrix(1,0,0,1,714.9228895061723,738.2811719780894) translate(41.0908024691358 17.955555555555552)"/><path d="M880.48 965.28h-.96v-11.8h.96zm0-38.75h-.96v-27.7h.96z" stroke="#54c45e" stroke-width=".05" fill="#54c45e"/><path d="M880 898.34l.48-.04v.55h-.96v-.55z" fill="#54c45e"/><path stroke="#54c45e" stroke-width=".05" fill="#54c45e"/><path d="M880 980.05l-4.63-14.27h9.26z" fill="#54c45e"/><path d="M880 981.58l-5.3-16.27h10.6zm-3.98-15.32L880 978.5l3.98-12.24z" stroke="#54c45e" stroke-width=".05" fill="#54c45e"/><use xlink:href="#l" transform="matrix(1,0,0,1,855.9657407407408,926.5333333333333) translate(0.004999999999999005 17.955555555555552)"/><path d="M873.6 984.8a10.67 10.67 0 0 1 12.8 0l67.2 50.4a6 6 0 0 1 0 9.6l-67.2 50.4a10.67 10.67 0 0 1-12.8 0l-67.2-50.4a6 6 0 0 1 0-9.6z" stroke="#6db1ff" stroke-width="2" fill="#fff"/><use xlink:href="#m" transform="matrix(1,0,0,1,805,985) translate(17.112037037037055 59.48888888888888)"/><use xlink:href="#n" transform="matrix(1,0,0,1,805,985) translate(69.35771604938272 59.48888888888888)"/><path d="M-40 1160c22.1 0 40 17.9 40 40s-17.9 40-40 40h-80c-22.1 0-40-17.9-40-40s17.9-40 40-40z" stroke="#000" fill="#00c2a8"/><use xlink:href="#o" transform="matrix(1,0,0,1,-155,1165) translate(36.34567901234569 39.48888888888889)"/><path d="M263.1 1040.47H-68l-1.82.15-1.76.42-1.67.7-1.54.94-1.38 1.17-1.17 1.38-.95 1.54-.7 1.67-.4 1.76-.16 1.82v91.1h-.94v-91.14l.15-1.93.45-1.9.75-1.8 1.03-1.68 1.28-1.5 1.5-1.26 1.66-1.02 1.8-.75 1.9-.45 1.94-.15h331.1zm539.4 0H340.4v-.94h462.1z" stroke="#3a414a" stroke-width=".05" fill="#3a414a"/><path d="M803 1040l.04.47h-.56v-.94h.56z" fill="#3a414a"/><path stroke="#3a414a" stroke-width=".05" fill="#3a414a"/><path d="M-80 1157.88l-4.64-14.26h9.28z" fill="#3a414a"/><path d="M-80 1159.42l-5.3-16.28h10.6zm-3.98-15.33l3.98 12.25 3.98-12.26z" stroke="#3a414a" stroke-width=".05" fill="#3a414a"/><use xlink:href="#o" transform="matrix(1,0,0,1,263.0935426571015,1026.5333333333333) translate(0.005000000000002558 17.955555555555552)"/><path d="M-540 1488a8 8 0 0 1 8-8h184a8 8 0 0 1 8 8v64a8 8 0 0 1-8 8h-184a8 8 0 0 1-8-8z" stroke="#000" fill="#6db1ff"/><use xlink:href="#p" transform="matrix(1,0,0,1,-528,1492) translate(5.142592592592607 19.022222222222222)"/><use xlink:href="#q" transform="matrix(1,0,0,1,-528,1492) translate(83.69814814814815 19.022222222222222)"/><use xlink:href="#r" transform="matrix(1,0,0,1,-528,1492) translate(42.61234567901236 45.95555555555555)"/><path d="M-300 1488a8 8 0 0 1 8-8h184a8 8 0 0 1 8 8v64a8 8 0 0 1-8 8h-184a8 8 0 0 1-8-8z" stroke="#000" fill="#6db1ff"/><use xlink:href="#s" transform="matrix(1,0,0,1,-288,1492) translate(4.612654320987673 32.48888888888889)"/><use xlink:href="#t" transform="matrix(1,0,0,1,-288,1492) translate(83.04351851851852 32.48888888888889)"/><path d="M-60 1488a8 8 0 0 1 8-8h184a8 8 0 0 1 8 8v64a8 8 0 0 1-8 8H-52a8 8 0 0 1-8-8z" stroke="#000" fill="#6db1ff"/><use xlink:href="#u" transform="matrix(1,0,0,1,-48,1492) translate(12.468209876543227 32.48888888888889)"/><use xlink:href="#v" transform="matrix(1,0,0,1,-48,1492) translate(73.8787037037037 32.48888888888889)"/><path d="M180 1488a8 8 0 0 1 8-8h184a8 8 0 0 1 8 8v64a8 8 0 0 1-8 8H188a8 8 0 0 1-8-8z" stroke="#000" fill="#6db1ff"/><use xlink:href="#w" transform="matrix(1,0,0,1,192,1492) translate(50.03148148148149 19.022222222222222)"/><use xlink:href="#x" transform="matrix(1,0,0,1,192,1492) translate(38.77808641975311 45.95555555555555)"/><path d="M-80 1241v107a12 12 0 0 1-12 12h-336a12 12 0 0 0-12 12v91.12" stroke="#3a414a" fill="none"/><path d="M-79.53 1241h-.94v-.5h.94z" stroke="#3a414a" stroke-width=".05" fill="#3a414a"/><path d="M-440 1477.88l-4.63-14.26h9.26z" stroke="#3a414a" fill="#3a414a"/><path d="M-80 1241v107a12 12 0 0 1-12 12h-96a12 12 0 0 0-12 12v91.12" stroke="#3a414a" fill="none"/><path d="M-79.53 1241h-.94v-.5h.94z" stroke="#3a414a" stroke-width=".05" fill="#3a414a"/><path d="M-200 1477.88l-4.63-14.26h9.26z" stroke="#3a414a" fill="#3a414a"/><path d="M-80 1241v107a12 12 0 0 0 12 12h96a12 12 0 0 1 12 12v91.12" stroke="#3a414a" fill="none"/><path d="M-79.53 1241h-.94v-.5h.94z" stroke="#3a414a" stroke-width=".05" fill="#3a414a"/><path d="M40 1477.88l-4.63-14.26h9.27z" stroke="#3a414a" fill="#3a414a"/><path d="M-80 1241v107a12 12 0 0 0 12 12h336a12 12 0 0 1 12 12v91.12" stroke="#3a414a" fill="none"/><path d="M-79.53 1241h-.94v-.5h.94z" stroke="#3a414a" stroke-width=".05" fill="#3a414a"/><path d="M280 1477.88l-4.63-14.26h9.26z" stroke="#3a414a" fill="#3a414a"/><path d="M920 1160c22.1 0 40 17.9 40 40s-17.9 40-40 40h-80c-22.1 0-40-17.9-40-40s17.9-40 40-40z" stroke="#000" fill="#00c2a8"/><use xlink:href="#y" transform="matrix(1,0,0,1,805,1165) translate(35.161111111111126 39.48888888888889)"/><path d="M420 1488a8 8 0 0 1 8-8h184a8 8 0 0 1 8 8v64a8 8 0 0 1-8 8H428a8 8 0 0 1-8-8z" stroke="#000" fill="#6db1ff"/><use xlink:href="#z" transform="matrix(1,0,0,1,432,1492) translate(32.574691358024694 19.022222222222222)"/><use xlink:href="#A" transform="matrix(1,0,0,1,432,1492) translate(106.0179012345679 19.022222222222222)"/><use xlink:href="#B" transform="matrix(1,0,0,1,432,1492) translate(2.6799382716049536 45.95555555555555)"/><use xlink:href="#C" transform="matrix(1,0,0,1,432,1492) translate(89.90154320987655 45.95555555555555)"/><path d="M660 1488a8 8 0 0 1 8-8h184a8 8 0 0 1 8 8v64a8 8 0 0 1-8 8H668a8 8 0 0 1-8-8z" stroke="#000" fill="#6db1ff"/><use xlink:href="#D" transform="matrix(1,0,0,1,672,1492) translate(27.61820987654322 19.022222222222222)"/><use xlink:href="#E" transform="matrix(1,0,0,1,672,1492) translate(108.60524691358025 19.022222222222222)"/><use xlink:href="#F" transform="matrix(1,0,0,1,672,1492) translate(43.734567901234584 45.95555555555555)"/><path d="M900 1488a8 8 0 0 1 8-8h184a8 8 0 0 1 8 8v64a8 8 0 0 1-8 8H908a8 8 0 0 1-8-8z" stroke="#000" fill="#6db1ff"/><use xlink:href="#G" transform="matrix(1,0,0,1,912,1492) translate(31.296604938271614 19.022222222222222)"/><use xlink:href="#A" transform="matrix(1,0,0,1,912,1492) translate(107.29598765432098 19.022222222222222)"/><use xlink:href="#H" transform="matrix(1,0,0,1,912,1492) translate(48.161111111111126 45.95555555555555)"/><path d="M1140 1488a8 8 0 0 1 8-8h184a8 8 0 0 1 8 8v64a8 8 0 0 1-8 8h-184a8 8 0 0 1-8-8z" stroke="#000" fill="#6db1ff"/><use xlink:href="#w" transform="matrix(1,0,0,1,1152,1492) translate(50.03148148148149 19.022222222222222)"/><use xlink:href="#I" transform="matrix(1,0,0,1,1152,1492) translate(-5.393827160493828 45.95555555555555)"/><path d="M880 1241v107a12 12 0 0 1-12 12H532a12 12 0 0 0-12 12v91.12" stroke="#3a414a" fill="none"/><path d="M880.48 1241h-.96v-.5h.96z" stroke="#3a414a" stroke-width=".05" fill="#3a414a"/><path d="M520 1477.88l-4.63-14.26h9.26z" stroke="#3a414a" fill="#3a414a"/><path d="M880 1241v107a12 12 0 0 1-12 12h-96a12 12 0 0 0-12 12v91.12" stroke="#3a414a" fill="none"/><path d="M880.48 1241h-.96v-.5h.96z" stroke="#3a414a" stroke-width=".05" fill="#3a414a"/><path d="M760 1477.88l-4.63-14.26h9.26z" stroke="#3a414a" fill="#3a414a"/><path d="M880 1241v107a12 12 0 0 0 12 12h96a12 12 0 0 1 12 12v91.12" stroke="#3a414a" fill="none"/><path d="M880.48 1241h-.96v-.5h.96z" stroke="#3a414a" stroke-width=".05" fill="#3a414a"/><path d="M1000 1477.88l-4.63-14.26h9.26z" stroke="#3a414a" fill="#3a414a"/><path d="M880 1241v107a12 12 0 0 0 12 12h336a12 12 0 0 1 12 12v91.12" stroke="#3a414a" fill="none"/><path d="M880.48 1241h-.96v-.5h.96z" stroke="#3a414a" stroke-width=".05" fill="#3a414a"/><path d="M1240 1477.88l-4.63-14.26h9.27z" stroke="#3a414a" fill="#3a414a"/><path d="M880.48 1143.12h-.96v-.74h.96zm0-27.67h-.96v-16.62h.96z" stroke="#3a414a" stroke-width=".05" fill="#3a414a"/><path d="M880 1098.34l.48-.03v.55h-.96v-.54z" fill="#3a414a"/><path stroke="#3a414a" stroke-width=".05" fill="#3a414a"/><path d="M880 1157.88l-4.63-14.26h9.26z" fill="#3a414a"/><path d="M880 1159.42l-5.3-16.28h10.6zm-3.98-15.33l3.98 12.25 3.98-12.26z" stroke="#3a414a" stroke-width=".05" fill="#3a414a"/><use xlink:href="#y" transform="matrix(1,0,0,1,840.1611111111112,1115.4510266138986) translate(0.005000000000002558 17.955555555555552)"/><path d="M1640 1160c22.1 0 40 17.9 40 40s-17.9 40-40 40h-80c-22.1 0-40-17.9-40-40s17.9-40 40-40z" stroke="#000" fill="#00c2a8"/><use xlink:href="#J" transform="matrix(1,0,0,1,1525,1165) translate(9.069444444444471 39.48888888888889)"/><path d="M1380 1488a8 8 0 0 1 8-8h184a8 8 0 0 1 8 8v64a8 8 0 0 1-8 8h-184a8 8 0 0 1-8-8z" stroke="#000" fill="#6db1ff"/><use xlink:href="#K" transform="matrix(1,0,0,1,1392,1492) translate(20.760185185185193 19.022222222222222)"/><use xlink:href="#L" transform="matrix(1,0,0,1,1392,1492) translate(107.98179012345679 19.022222222222222)"/><use xlink:href="#M" transform="matrix(1,0,0,1,1392,1492) translate(41.86419753086421 45.95555555555555)"/><path d="M1620 1488a8 8 0 0 1 8-8h184a8 8 0 0 1 8 8v64a8 8 0 0 1-8 8h-184a8 8 0 0 1-8-8z" stroke="#000" fill="#6db1ff"/><use xlink:href="#s" transform="matrix(1,0,0,1,1632,1492) translate(7.0441358024691425 19.022222222222222)"/><use xlink:href="#N" transform="matrix(1,0,0,1,1632,1492) translate(85.475 19.022222222222222)"/><use xlink:href="#O" transform="matrix(1,0,0,1,1632,1492) translate(40.05617283950618 45.95555555555555)"/><path d="M1600 1241v107a12 12 0 0 1-12 12h-96a12 12 0 0 0-12 12v91.12" stroke="#3a414a" fill="none"/><path d="M1600.47 1241h-.94v-.5h.94z" stroke="#3a414a" stroke-width=".05" fill="#3a414a"/><path d="M1480 1477.88l-4.63-14.26h9.27z" stroke="#3a414a" fill="#3a414a"/><path d="M1600 1241v107a12 12 0 0 0 12 12h96a12 12 0 0 1 12 12v91.12" stroke="#3a414a" fill="none"/><path d="M1600.47 1241h-.94v-.5h.94z" stroke="#3a414a" stroke-width=".05" fill="#3a414a"/><path d="M1720 1477.88l-4.63-14.26h9.27z" stroke="#3a414a" fill="#3a414a"/><path d="M1589.95 1039.68l1.9.45 1.8.75 1.68 1.03 1.5 1.28 1.26 1.5 1.02 1.66.75 1.8.45 1.9.15 1.94v91.14h-.94v-91.1l-.15-1.82-.42-1.76-.7-1.67-.94-1.54-1.17-1.38-1.38-1.17-1.54-.95-1.67-.7-1.76-.4-1.82-.16h-183.8v-.94h183.84zm-632.45.8v-.95h314.82v.94z" stroke="#3a414a" stroke-width=".05" fill="#3a414a"/><path d="M957.52 1040.47h-.56l.04-.47-.04-.47h.56z" fill="#3a414a"/><path stroke="#3a414a" stroke-width=".05" fill="#3a414a"/><path d="M1600 1157.88l-4.63-14.26h9.27z" fill="#3a414a"/><path d="M1600 1159.42l-5.3-16.28h10.6zm-3.98-15.33l3.98 12.25 3.98-12.26z" stroke="#3a414a" stroke-width=".05" fill="#3a414a"/><use xlink:href="#J" transform="matrix(1,0,0,1,1272.3215807996887,1026.5333333333333) translate(0.0049999999999954525 17.955555555555552)"/><path d="M920 1800c22.1 0 40 17.9 40 40s-17.9 40-40 40h-80c-22.1 0-40-17.9-40-40s17.9-40 40-40z" stroke="#000" fill="#00c2a8"/><use xlink:href="#P" transform="matrix(1,0,0,1,805,1805) translate(40.70987654320989 39.48888888888889)"/><path d="M760 1561v107a12 12 0 0 0 12 12h96a12 12 0 0 1 12 12v91.12" stroke="#3a414a" fill="none"/><path d="M760.48 1561h-.96v-.5h.96z" stroke="#3a414a" stroke-width=".05" fill="#3a414a"/><path d="M880 1797.88l-4.63-14.26h9.26z" stroke="#3a414a" fill="#3a414a"/><path d="M1000 1561v107a12 12 0 0 1-12 12h-96a12 12 0 0 0-12 12v91.12" stroke="#3a414a" fill="none"/><path d="M1000.48 1561h-.96v-.5h.96z" stroke="#3a414a" stroke-width=".05" fill="#3a414a"/><path d="M880 1797.88l-4.63-14.26h9.26z" stroke="#3a414a" fill="#3a414a"/><path d="M1240 1561v107a12 12 0 0 1-12 12H892a12 12 0 0 0-12 12v91.12" stroke="#3a414a" fill="none"/><path d="M1240.47 1561h-.94v-.5h.94z" stroke="#3a414a" stroke-width=".05" fill="#3a414a"/><path d="M880 1797.88l-4.63-14.26h9.26z" stroke="#3a414a" fill="#3a414a"/><path d="M1480 1561v107a12 12 0 0 1-12 12H892a12 12 0 0 0-12 12v91.12" stroke="#3a414a" fill="none"/><path d="M1480.47 1561h-.94v-.5h.94z" stroke="#3a414a" stroke-width=".05" fill="#3a414a"/><path d="M880 1797.88l-4.63-14.26h9.26z" stroke="#3a414a" fill="#3a414a"/><path d="M1720 1561v107a12 12 0 0 1-12 12H892a12 12 0 0 0-12 12v91.12" stroke="#3a414a" fill="none"/><path d="M1720.47 1561h-.94v-.5h.94z" stroke="#3a414a" stroke-width=".05" fill="#3a414a"/><path d="M880 1797.88l-4.63-14.26h9.26z" stroke="#3a414a" fill="#3a414a"/><path d="M-200 1561v107a12 12 0 0 0 12 12H868a12 12 0 0 1 12 12v91.12" stroke="#3a414a" fill="none"/><path d="M-199.53 1561h-.94v-.5h.94z" stroke="#3a414a" stroke-width=".05" fill="#3a414a"/><path d="M880 1797.88l-4.63-14.26h9.26z" stroke="#3a414a" fill="#3a414a"/><path d="M40 1561v107a12 12 0 0 0 12 12h816a12 12 0 0 1 12 12v91.12" stroke="#3a414a" fill="none"/><path d="M40.48 1561h-.95v-.5h.95z" stroke="#3a414a" stroke-width=".05" fill="#3a414a"/><path d="M880 1797.88l-4.63-14.26h9.26z" stroke="#3a414a" fill="#3a414a"/><path d="M280 1561v107a12 12 0 0 0 12 12h576a12 12 0 0 1 12 12v91.12" stroke="#3a414a" fill="none"/><path d="M280.48 1561h-.96v-.5h.96z" stroke="#3a414a" stroke-width=".05" fill="#3a414a"/><path d="M880 1797.88l-4.63-14.26h9.26z" stroke="#3a414a" fill="#3a414a"/><path d="M520 1561v107a12 12 0 0 0 12 12h336a12 12 0 0 1 12 12v91.12" stroke="#3a414a" fill="none"/><path d="M520.48 1561h-.96v-.5h.96z" stroke="#3a414a" stroke-width=".05" fill="#3a414a"/><path d="M880 1797.88l-4.63-14.26h9.26z" stroke="#3a414a" fill="#3a414a"/><path d="M-440 1561v107a12 12 0 0 0 12 12H868a12 12 0 0 1 12 12v91.12" stroke="#3a414a" fill="none"/><path d="M-439.52 1561h-.96v-.5h.96z" stroke="#3a414a" stroke-width=".05" fill="#3a414a"/><path d="M880 1797.88l-4.63-14.26h9.26z" stroke="#3a414a" fill="#3a414a"/><path d="M-440 228a8 8 0 0 1 8-8h944a8 8 0 0 1 8 8v224a8 8 0 0 1-8 8h-944a8 8 0 0 1-8-8z" fill="none"/><g><use xlink:href="#Q" transform="matrix(1,0,0,1,-440,220) translate(38.55555555555554 88)"/><use xlink:href="#R" transform="matrix(1,0,0,1,-440,220) translate(291.44444444444446 88)"/><use xlink:href="#S" transform="matrix(1,0,0,1,-440,220) translate(624.3333333333334 88)"/><use xlink:href="#T" transform="matrix(1,0,0,1,-440,220) translate(192.22222222222223 184)"/><use xlink:href="#U" transform="matrix(1,0,0,1,-440,220) translate(386 184)"/><use xlink:href="#V" transform="matrix(1,0,0,1,-440,220) translate(434.66666666666663 184)"/><use xlink:href="#W" transform="matrix(1,0,0,1,-440,220) translate(678.8888888888889 184)"/></g><path d="M1140 521v127a12 12 0 0 1-12 12H976.88" stroke="#3a414a" fill="none"/><path d="M1140.47 521h-.94v-.5h.94z" stroke="#3a414a" stroke-width=".05" fill="#3a414a"/><path d="M962.12 660l14.26-4.63v9.26z" stroke="#3a414a" fill="#3a414a"/><defs><path fill="#3a414a" d="M30 0v-248h187v28H63v79h144v27H63v87h162V0H30" id="X"/><path fill="#3a414a" d="M141 0L90-78 38 0H4l68-98-65-92h35l48 74 47-74h35l-64 92 68 98h-35" id="Y"/><path fill="#3a414a" d="M24-231v-30h32v30H24zM24 0v-190h32V0H24" id="Z"/><path fill="#3a414a" d="M135-143c-3-34-86-38-87 0 15 53 115 12 119 90S17 21 10-45l28-5c4 36 97 45 98 0-10-56-113-15-118-90-4-57 82-63 122-42 12 7 21 19 24 35" id="aa"/><path fill="#3a414a" d="M59-47c-2 24 18 29 38 22v24C64 9 27 4 27-40v-127H5v-23h24l9-43h21v43h35v23H59v120" id="ab"/><path fill="#3a414a" d="M117-194c89-4 53 116 60 194h-32v-121c0-31-8-49-39-48C34-167 62-67 57 0H25l-1-190h30c1 10-1 24 2 32 11-22 29-35 61-36" id="ac"/><path fill="#3a414a" d="M177-190C167-65 218 103 67 71c-23-6-38-20-44-43l32-5c15 47 100 32 89-28v-30C133-14 115 1 83 1 29 1 15-40 15-95c0-56 16-97 71-98 29-1 48 16 59 35 1-10 0-23 2-32h30zM94-22c36 0 50-32 50-73 0-42-14-75-50-75-39 0-46 34-46 75s6 73 46 73" id="ad"/><g id="a"><use transform="matrix(0.06234567901234567,0,0,0.06234567901234567,0,0)" xlink:href="#X"/><use transform="matrix(0.06234567901234567,0,0,0.06234567901234567,14.96296296296296,0)" xlink:href="#Y"/><use transform="matrix(0.06234567901234567,0,0,0.06234567901234567,26.18518518518518,0)" xlink:href="#Z"/><use transform="matrix(0.06234567901234567,0,0,0.06234567901234567,31.11049382716049,0)" xlink:href="#aa"/><use transform="matrix(0.06234567901234567,0,0,0.06234567901234567,42.33271604938271,0)" xlink:href="#ab"/><use transform="matrix(0.06234567901234567,0,0,0.06234567901234567,48.56728395061728,0)" xlink:href="#Z"/><use transform="matrix(0.06234567901234567,0,0,0.06234567901234567,53.49259259259259,0)" xlink:href="#ac"/><use transform="matrix(0.06234567901234567,0,0,0.06234567901234567,65.96172839506173,0)" xlink:href="#ad"/></g><path fill="#3a414a" d="M232-93c-1 65-40 97-104 97C67 4 28-28 28-90v-158h33c8 89-33 224 67 224 102 0 64-133 71-224h33v155" id="ae"/><path fill="#3a414a" d="M100-194c63 0 86 42 84 106H49c0 40 14 67 53 68 26 1 43-12 49-29l28 8c-11 28-37 45-77 45C44 4 14-33 15-96c1-61 26-98 85-98zm52 81c6-60-76-77-97-28-3 7-6 17-6 28h103" id="af"/><path fill="#3a414a" d="M114-163C36-179 61-72 57 0H25l-1-190h30c1 12-1 29 2 39 6-27 23-49 58-41v29" id="ag"/><g id="b"><use transform="matrix(0.06234567901234567,0,0,0.06234567901234567,0,0)" xlink:href="#ae"/><use transform="matrix(0.06234567901234567,0,0,0.06234567901234567,16.147530864197527,0)" xlink:href="#aa"/><use transform="matrix(0.06234567901234567,0,0,0.06234567901234567,27.36975308641975,0)" xlink:href="#af"/><use transform="matrix(0.06234567901234567,0,0,0.06234567901234567,39.83888888888888,0)" xlink:href="#ag"/></g><path fill="#3a414a" d="M233-177c-1 41-23 64-60 70L243 0h-38l-65-103H63V0H30v-248c88 3 205-21 203 71zM63-129c60-2 137 13 137-47 0-61-80-42-137-45v92" id="ah"/><g id="c"><use transform="matrix(0.06234567901234567,0,0,0.06234567901234567,0,0)" xlink:href="#ah"/><use transform="matrix(0.06234567901234567,0,0,0.06234567901234567,16.147530864197527,0)" xlink:href="#af"/><use transform="matrix(0.06234567901234567,0,0,0.06234567901234567,28.61666666666666,0)" xlink:href="#ad"/><use transform="matrix(0.06234567901234567,0,0,0.06234567901234567,41.08580246913579,0)" xlink:href="#Z"/><use transform="matrix(0.06234567901234567,0,0,0.06234567901234567,46.0111111111111,0)" xlink:href="#aa"/><use transform="matrix(0.06234567901234567,0,0,0.06234567901234567,57.23333333333332,0)" xlink:href="#ab"/><use transform="matrix(0.06234567901234567,0,0,0.06234567901234567,63.46790123456789,0)" xlink:href="#af"/><use transform="matrix(0.06234567901234567,0,0,0.06234567901234567,75.93703703703702,0)" xlink:href="#ag"/></g><path fill="#3a414a" d="M190 0L58-211 59 0H30v-248h39L202-35l-2-213h31V0h-41" id="ai"/><path fill="#3a414a" d="M100-194c62-1 85 37 85 99 1 63-27 99-86 99S16-35 15-95c0-66 28-99 85-99zM99-20c44 1 53-31 53-75 0-43-8-75-51-75s-53 32-53 75 10 74 51 75" id="aj"/><g id="d"><use transform="matrix(0.06234567901234567,0,0,0.06234567901234567,0,0)" xlink:href="#ai"/><use transform="matrix(0.06234567901234567,0,0,0.06234567901234567,16.147530864197527,0)" xlink:href="#aj"/></g><path fill="#3a414a" d="M140-251c81 0 123 46 123 126C263-46 219 4 140 4 59 4 17-45 17-125s42-126 123-126zm0 227c63 0 89-41 89-101s-29-99-89-99c-61 0-89 39-89 99S79-25 140-24" id="ak"/><path fill="#3a414a" d="M115-194c55 1 70 41 70 98S169 2 115 4C84 4 66-9 55-30l1 105H24l-1-265h31l2 30c10-21 28-34 59-34zm-8 174c40 0 45-34 45-75s-6-73-45-74c-42 0-51 32-51 76 0 43 10 73 51 73" id="al"/><g id="e"><use transform="matrix(0.06234567901234567,0,0,0.06234567901234567,0,0)" xlink:href="#ak"/><use transform="matrix(0.06234567901234567,0,0,0.06234567901234567,17.456790123456788,0)" xlink:href="#al"/><use transform="matrix(0.06234567901234567,0,0,0.06234567901234567,29.92592592592592,0)" xlink:href="#af"/><use transform="matrix(0.06234567901234567,0,0,0.06234567901234567,42.39506172839505,0)" xlink:href="#ac"/></g><path fill="#3a414a" d="M205 0l-28-72H64L36 0H1l101-248h38L239 0h-34zm-38-99l-47-123c-12 45-31 82-46 123h93" id="am"/><path fill="#3a414a" d="M24 0v-261h32V0H24" id="an"/><path fill="#3a414a" d="M96-169c-40 0-48 33-48 73s9 75 48 75c24 0 41-14 43-38l32 2c-6 37-31 61-74 61-59 0-76-41-82-99-10-93 101-131 147-64 4 7 5 14 7 22l-32 3c-4-21-16-35-41-35" id="ao"/><path fill="#3a414a" d="M141-36C126-15 110 5 73 4 37 3 15-17 15-53c-1-64 63-63 125-63 3-35-9-54-41-54-24 1-41 7-42 31l-33-3c5-37 33-52 76-52 45 0 72 20 72 64v82c-1 20 7 32 28 27v20c-31 9-61-2-59-35zM48-53c0 20 12 33 32 33 41-3 63-29 60-74-43 2-92-5-92 41" id="ap"/><g id="f"><use transform="matrix(0.06234567901234567,0,0,0.06234567901234567,0,0)" xlink:href="#am"/><use transform="matrix(0.06234567901234567,0,0,0.06234567901234567,14.96296296296296,0)" xlink:href="#al"/><use transform="matrix(0.06234567901234567,0,0,0.06234567901234567,27.432098765432094,0)" xlink:href="#al"/><use transform="matrix(0.06234567901234567,0,0,0.06234567901234567,39.90123456790123,0)" xlink:href="#an"/><use transform="matrix(0.06234567901234567,0,0,0.06234567901234567,44.82654320987653,0)" xlink:href="#Z"/><use transform="matrix(0.06234567901234567,0,0,0.06234567901234567,49.75185185185184,0)" xlink:href="#ao"/><use transform="matrix(0.06234567901234567,0,0,0.06234567901234567,60.97407407407406,0)" xlink:href="#ap"/><use transform="matrix(0.06234567901234567,0,0,0.06234567901234567,73.4432098765432,0)" xlink:href="#ab"/><use transform="matrix(0.06234567901234567,0,0,0.06234567901234567,79.67777777777776,0)" xlink:href="#Z"/><use transform="matrix(0.06234567901234567,0,0,0.06234567901234567,84.60308641975307,0)" xlink:href="#aj"/><use transform="matrix(0.06234567901234567,0,0,0.06234567901234567,97.0722222222222,0)" xlink:href="#ac"/></g><path fill="#3a414a" d="M30 0v-248h33v221h125V0H30" id="aq"/><g id="g"><use transform="matrix(0.06234567901234567,0,0,0.06234567901234567,0,0)" xlink:href="#aq"/><use transform="matrix(0.06234567901234567,0,0,0.06234567901234567,12.469135802469133,0)" xlink:href="#aj"/><use transform="matrix(0.06234567901234567,0,0,0.06234567901234567,24.938271604938265,0)" xlink:href="#ad"/><use transform="matrix(0.06234567901234567,0,0,0.06234567901234567,37.4074074074074,0)" xlink:href="#Z"/><use transform="matrix(0.06234567901234567,0,0,0.06234567901234567,42.332716049382704,0)" xlink:href="#ac"/></g><path fill="#3a414a" d="M137-103V0h-34v-103L8-248h37l75 118 75-118h37" id="ar"/><g id="h"><use transform="matrix(0.06234567901234567,0,0,0.06234567901234567,0,0)" xlink:href="#ar"/><use transform="matrix(0.06234567901234567,0,0,0.06234567901234567,12.905555555555553,0)" xlink:href="#af"/><use transform="matrix(0.06234567901234567,0,0,0.06234567901234567,25.374691358024684,0)" xlink:href="#aa"/></g><path fill="#3a414a" d="M137 0h-34L2-248h35l83 218 83-218h36" id="as"/><path fill="#3a414a" d="M85-194c31 0 48 13 60 33l-1-100h32l1 261h-30c-2-10 0-23-3-31C134-8 116 4 85 4 32 4 16-35 15-94c0-66 23-100 70-100zm9 24c-40 0-46 34-46 75 0 40 6 74 45 74 42 0 51-32 51-76 0-42-9-74-50-73" id="at"/><g id="i"><use transform="matrix(0.06234567901234567,0,0,0.06234567901234567,0,0)" xlink:href="#as"/><use transform="matrix(0.06234567901234567,0,0,0.06234567901234567,13.279629629629627,0)" xlink:href="#ap"/><use transform="matrix(0.06234567901234567,0,0,0.06234567901234567,25.748765432098757,0)" xlink:href="#an"/><use transform="matrix(0.06234567901234567,0,0,0.06234567901234567,30.674074074074063,0)" xlink:href="#Z"/><use transform="matrix(0.06234567901234567,0,0,0.06234567901234567,35.59938271604937,0)" xlink:href="#at"/><use transform="matrix(0.06234567901234567,0,0,0.06234567901234567,48.0685185185185,0)" xlink:href="#ap"/><use transform="matrix(0.06234567901234567,0,0,0.06234567901234567,60.537654320987635,0)" xlink:href="#ab"/><use transform="matrix(0.06234567901234567,0,0,0.06234567901234567,66.7722222222222,0)" xlink:href="#af"/></g><g id="j"><use transform="matrix(0.06234567901234567,0,0,0.06234567901234567,0,0)" xlink:href="#ai"/><use transform="matrix(0.06234567901234567,0,0,0.06234567901234567,16.147530864197527,0)" xlink:href="#aj"/><use transform="matrix(0.06234567901234567,0,0,0.06234567901234567,28.61666666666666,0)" xlink:href="#ab"/></g><g id="k"><use transform="matrix(0.06234567901234567,0,0,0.06234567901234567,0,0)" xlink:href="#as"/><use transform="matrix(0.06234567901234567,0,0,0.06234567901234567,13.279629629629627,0)" xlink:href="#ap"/><use transform="matrix(0.06234567901234567,0,0,0.06234567901234567,25.748765432098757,0)" xlink:href="#an"/><use transform="matrix(0.06234567901234567,0,0,0.06234567901234567,30.674074074074063,0)" xlink:href="#Z"/><use transform="matrix(0.06234567901234567,0,0,0.06234567901234567,35.59938271604937,0)" xlink:href="#at"/></g><g id="l"><use transform="matrix(0.06234567901234567,0,0,0.06234567901234567,0,0)" xlink:href="#as"/><use transform="matrix(0.06234567901234567,0,0,0.06234567901234567,13.279629629629627,0)" xlink:href="#ap"/><use transform="matrix(0.06234567901234567,0,0,0.06234567901234567,25.748765432098757,0)" xlink:href="#an"/><use transform="matrix(0.06234567901234567,0,0,0.06234567901234567,30.674074074074063,0)" xlink:href="#Z"/><use transform="matrix(0.06234567901234567,0,0,0.06234567901234567,35.59938271604937,0)" xlink:href="#at"/></g><g id="m"><use transform="matrix(0.06234567901234567,0,0,0.06234567901234567,0,0)" xlink:href="#ah"/><use transform="matrix(0.06234567901234567,0,0,0.06234567901234567,16.147530864197527,0)" xlink:href="#aj"/><use transform="matrix(0.06234567901234567,0,0,0.06234567901234567,28.61666666666666,0)" xlink:href="#an"/><use transform="matrix(0.06234567901234567,0,0,0.06234567901234567,33.541975308641966,0)" xlink:href="#af"/></g><path fill="#3a414a" d="M212-179c-10-28-35-45-73-45-59 0-87 40-87 99 0 60 29 101 89 101 43 0 62-24 78-52l27 14C228-24 195 4 139 4 59 4 22-46 18-125c-6-104 99-153 187-111 19 9 31 26 39 46" id="au"/><path fill="#3a414a" d="M106-169C34-169 62-67 57 0H25v-261h32l-1 103c12-21 28-36 61-36 89 0 53 116 60 194h-32v-121c2-32-8-49-39-48" id="av"/><path fill="#3a414a" d="M143 0L79-87 56-68V0H24v-261h32v163l83-92h37l-77 82L181 0h-38" id="aw"/><g id="n"><use transform="matrix(0.06234567901234567,0,0,0.06234567901234567,0,0)" xlink:href="#au"/><use transform="matrix(0.06234567901234567,0,0,0.06234567901234567,16.147530864197527,0)" xlink:href="#av"/><use transform="matrix(0.06234567901234567,0,0,0.06234567901234567,28.61666666666666,0)" xlink:href="#af"/><use transform="matrix(0.06234567901234567,0,0,0.06234567901234567,41.08580246913579,0)" xlink:href="#ao"/><use transform="matrix(0.06234567901234567,0,0,0.06234567901234567,52.308024691358014,0)" xlink:href="#aw"/></g><path fill="#3a414a" d="M185-189c-5-48-123-54-124 2 14 75 158 14 163 119 3 78-121 87-175 55-17-10-28-26-33-46l33-7c5 56 141 63 141-1 0-78-155-14-162-118-5-82 145-84 179-34 5 7 8 16 11 25" id="ax"/><path fill="#3a414a" d="M84 4C-5 8 30-112 23-190h32v120c0 31 7 50 39 49 72-2 45-101 50-169h31l1 190h-30c-1-10 1-25-2-33-11 22-28 36-60 37" id="ay"/><g id="o"><use transform="matrix(0.06234567901234567,0,0,0.06234567901234567,0,0)" xlink:href="#ax"/><use transform="matrix(0.06234567901234567,0,0,0.06234567901234567,14.96296296296296,0)" xlink:href="#ab"/><use transform="matrix(0.06234567901234567,0,0,0.06234567901234567,21.197530864197525,0)" xlink:href="#ay"/><use transform="matrix(0.06234567901234567,0,0,0.06234567901234567,33.66666666666666,0)" xlink:href="#at"/><use transform="matrix(0.06234567901234567,0,0,0.06234567901234567,46.13580246913579,0)" xlink:href="#af"/><use transform="matrix(0.06234567901234567,0,0,0.06234567901234567,58.60493827160492,0)" xlink:href="#ac"/><use transform="matrix(0.06234567901234567,0,0,0.06234567901234567,71.07407407407405,0)" xlink:href="#ab"/></g><g id="p"><use transform="matrix(0.06234567901234567,0,0,0.06234567901234567,0,0)" xlink:href="#am"/><use transform="matrix(0.06234567901234567,0,0,0.06234567901234567,14.96296296296296,0)" xlink:href="#ao"/><use transform="matrix(0.06234567901234567,0,0,0.06234567901234567,26.18518518518518,0)" xlink:href="#ao"/><use transform="matrix(0.06234567901234567,0,0,0.06234567901234567,37.4074074074074,0)" xlink:href="#af"/><use transform="matrix(0.06234567901234567,0,0,0.06234567901234567,49.87654320987653,0)" xlink:href="#aa"/><use transform="matrix(0.06234567901234567,0,0,0.06234567901234567,61.09876543209875,0)" xlink:href="#aa"/></g><g id="q"><use transform="matrix(0.06234567901234567,0,0,0.06234567901234567,0,0)" xlink:href="#aq"/><use transform="matrix(0.06234567901234567,0,0,0.06234567901234567,12.469135802469133,0)" xlink:href="#af"/><use transform="matrix(0.06234567901234567,0,0,0.06234567901234567,24.938271604938265,0)" xlink:href="#ap"/><use transform="matrix(0.06234567901234567,0,0,0.06234567901234567,37.4074074074074,0)" xlink:href="#ag"/><use transform="matrix(0.06234567901234567,0,0,0.06234567901234567,44.82654320987653,0)" xlink:href="#ac"/><use transform="matrix(0.06234567901234567,0,0,0.06234567901234567,57.295679012345666,0)" xlink:href="#Z"/><use transform="matrix(0.06234567901234567,0,0,0.06234567901234567,62.22098765432097,0)" xlink:href="#ac"/><use transform="matrix(0.06234567901234567,0,0,0.06234567901234567,74.6901234567901,0)" xlink:href="#ad"/></g><path fill="#3a414a" d="M240 0l2-218c-23 76-54 145-80 218h-23L58-218 59 0H30v-248h44l77 211c21-75 51-140 76-211h43V0h-30" id="az"/><g id="r"><use transform="matrix(0.06234567901234567,0,0,0.06234567901234567,0,0)" xlink:href="#az"/><use transform="matrix(0.06234567901234567,0,0,0.06234567901234567,18.641358024691353,0)" xlink:href="#ap"/><use transform="matrix(0.06234567901234567,0,0,0.06234567901234567,31.110493827160486,0)" xlink:href="#ab"/><use transform="matrix(0.06234567901234567,0,0,0.06234567901234567,37.34506172839505,0)" xlink:href="#af"/><use transform="matrix(0.06234567901234567,0,0,0.06234567901234567,49.814197530864185,0)" xlink:href="#ag"/><use transform="matrix(0.06234567901234567,0,0,0.06234567901234567,57.23333333333332,0)" xlink:href="#Z"/><use transform="matrix(0.06234567901234567,0,0,0.06234567901234567,62.158641975308626,0)" xlink:href="#ap"/><use transform="matrix(0.06234567901234567,0,0,0.06234567901234567,74.62777777777777,0)" xlink:href="#an"/><use transform="matrix(0.06234567901234567,0,0,0.06234567901234567,79.55308641975307,0)" xlink:href="#aa"/></g><g id="s"><use transform="matrix(0.06234567901234567,0,0,0.06234567901234567,0,0)" xlink:href="#au"/><use transform="matrix(0.06234567901234567,0,0,0.06234567901234567,16.147530864197527,0)" xlink:href="#aj"/><use transform="matrix(0.06234567901234567,0,0,0.06234567901234567,28.61666666666666,0)" xlink:href="#ay"/><use transform="matrix(0.06234567901234567,0,0,0.06234567901234567,41.08580246913579,0)" xlink:href="#ag"/><use transform="matrix(0.06234567901234567,0,0,0.06234567901234567,48.50493827160493,0)" xlink:href="#aa"/><use transform="matrix(0.06234567901234567,0,0,0.06234567901234567,59.72716049382715,0)" xlink:href="#af"/></g><path fill="#3a414a" d="M108 0H70L1-190h34L89-25l56-165h34" id="aA"/><g id="t"><use transform="matrix(0.06234567901234567,0,0,0.06234567901234567,0,0)" xlink:href="#am"/><use transform="matrix(0.06234567901234567,0,0,0.06234567901234567,14.96296296296296,0)" xlink:href="#ao"/><use transform="matrix(0.06234567901234567,0,0,0.06234567901234567,26.18518518518518,0)" xlink:href="#ab"/><use transform="matrix(0.06234567901234567,0,0,0.06234567901234567,32.419753086419746,0)" xlink:href="#Z"/><use transform="matrix(0.06234567901234567,0,0,0.06234567901234567,37.34506172839505,0)" xlink:href="#aA"/><use transform="matrix(0.06234567901234567,0,0,0.06234567901234567,48.56728395061727,0)" xlink:href="#Z"/><use transform="matrix(0.06234567901234567,0,0,0.06234567901234567,53.49259259259258,0)" xlink:href="#ab"/><use transform="matrix(0.06234567901234567,0,0,0.06234567901234567,59.72716049382714,0)" xlink:href="#Z"/><use transform="matrix(0.06234567901234567,0,0,0.06234567901234567,64.65246913580245,0)" xlink:href="#af"/><use transform="matrix(0.06234567901234567,0,0,0.06234567901234567,77.12160493827159,0)" xlink:href="#aa"/></g><path fill="#3a414a" d="M127-220V0H93v-220H8v-28h204v28h-85" id="aB"/><g id="u"><use transform="matrix(0.06234567901234567,0,0,0.06234567901234567,0,0)" xlink:href="#aB"/><use transform="matrix(0.06234567901234567,0,0,0.06234567901234567,12.843209876543208,0)" xlink:href="#ag"/><use transform="matrix(0.06234567901234567,0,0,0.06234567901234567,20.26234567901234,0)" xlink:href="#ap"/><use transform="matrix(0.06234567901234567,0,0,0.06234567901234567,32.731481481481474,0)" xlink:href="#ao"/><use transform="matrix(0.06234567901234567,0,0,0.06234567901234567,43.953703703703695,0)" xlink:href="#aw"/></g><path fill="#3a414a" d="M30-248c87 1 191-15 191 75 0 78-77 80-158 76V0H30v-248zm33 125c57 0 124 11 124-50 0-59-68-47-124-48v98" id="aC"/><g id="v"><use transform="matrix(0.06234567901234567,0,0,0.06234567901234567,0,0)" xlink:href="#aC"/><use transform="matrix(0.06234567901234567,0,0,0.06234567901234567,14.96296296296296,0)" xlink:href="#ag"/><use transform="matrix(0.06234567901234567,0,0,0.06234567901234567,22.382098765432094,0)" xlink:href="#aj"/><use transform="matrix(0.06234567901234567,0,0,0.06234567901234567,34.85123456790123,0)" xlink:href="#ad"/><use transform="matrix(0.06234567901234567,0,0,0.06234567901234567,47.32037037037036,0)" xlink:href="#ag"/><use transform="matrix(0.06234567901234567,0,0,0.06234567901234567,54.7395061728395,0)" xlink:href="#af"/><use transform="matrix(0.06234567901234567,0,0,0.06234567901234567,67.20864197530864,0)" xlink:href="#aa"/><use transform="matrix(0.06234567901234567,0,0,0.06234567901234567,78.43086419753085,0)" xlink:href="#aa"/></g><g id="w"><use transform="matrix(0.06234567901234567,0,0,0.06234567901234567,0,0)" xlink:href="#aC"/><use transform="matrix(0.06234567901234567,0,0,0.06234567901234567,14.96296296296296,0)" xlink:href="#ag"/><use transform="matrix(0.06234567901234567,0,0,0.06234567901234567,22.382098765432094,0)" xlink:href="#aj"/><use transform="matrix(0.06234567901234567,0,0,0.06234567901234567,34.85123456790123,0)" xlink:href="#aA"/><use transform="matrix(0.06234567901234567,0,0,0.06234567901234567,46.07345679012345,0)" xlink:href="#Z"/><use transform="matrix(0.06234567901234567,0,0,0.06234567901234567,50.99876543209876,0)" xlink:href="#at"/><use transform="matrix(0.06234567901234567,0,0,0.06234567901234567,63.46790123456789,0)" xlink:href="#af"/></g><path fill="#3a414a" d="M63-220v92h138v28H63V0H30v-248h175v28H63" id="aD"/><path fill="#3a414a" d="M115-194c53 0 69 39 70 98 0 66-23 100-70 100C84 3 66-7 56-30L54 0H23l1-261h32v101c10-23 28-34 59-34zm-8 174c40 0 45-34 45-75 0-40-5-75-45-74-42 0-51 32-51 76 0 43 10 73 51 73" id="aE"/><g id="x"><use transform="matrix(0.06234567901234567,0,0,0.06234567901234567,0,0)" xlink:href="#aD"/><use transform="matrix(0.06234567901234567,0,0,0.06234567901234567,13.653703703703702,0)" xlink:href="#af"/><use transform="matrix(0.06234567901234567,0,0,0.06234567901234567,26.122839506172834,0)" xlink:href="#af"/><use transform="matrix(0.06234567901234567,0,0,0.06234567901234567,38.59197530864196,0)" xlink:href="#at"/><use transform="matrix(0.06234567901234567,0,0,0.06234567901234567,51.061111111111096,0)" xlink:href="#aE"/><use transform="matrix(0.06234567901234567,0,0,0.06234567901234567,63.53024691358023,0)" xlink:href="#ap"/><use transform="matrix(0.06234567901234567,0,0,0.06234567901234567,75.99938271604935,0)" xlink:href="#ao"/><use transform="matrix(0.06234567901234567,0,0,0.06234567901234567,87.22160493827157,0)" xlink:href="#aw"/></g><g id="y"><use transform="matrix(0.06234567901234567,0,0,0.06234567901234567,0,0)" xlink:href="#aB"/><use transform="matrix(0.06234567901234567,0,0,0.06234567901234567,11.159876543209876,0)" xlink:href="#af"/><use transform="matrix(0.06234567901234567,0,0,0.06234567901234567,23.62901234567901,0)" xlink:href="#ap"/><use transform="matrix(0.06234567901234567,0,0,0.06234567901234567,36.09814814814814,0)" xlink:href="#ao"/><use transform="matrix(0.06234567901234567,0,0,0.06234567901234567,47.32037037037036,0)" xlink:href="#av"/><use transform="matrix(0.06234567901234567,0,0,0.06234567901234567,59.789506172839495,0)" xlink:href="#af"/><use transform="matrix(0.06234567901234567,0,0,0.06234567901234567,72.25864197530862,0)" xlink:href="#ag"/></g><g id="z"><use transform="matrix(0.06234567901234567,0,0,0.06234567901234567,0,0)" xlink:href="#au"/><use transform="matrix(0.06234567901234567,0,0,0.06234567901234567,16.147530864197527,0)" xlink:href="#ag"/><use transform="matrix(0.06234567901234567,0,0,0.06234567901234567,23.566666666666663,0)" xlink:href="#af"/><use transform="matrix(0.06234567901234567,0,0,0.06234567901234567,36.035802469135795,0)" xlink:href="#ap"/><use transform="matrix(0.06234567901234567,0,0,0.06234567901234567,48.50493827160493,0)" xlink:href="#ab"/><use transform="matrix(0.06234567901234567,0,0,0.06234567901234567,54.7395061728395,0)" xlink:href="#af"/></g><g id="A"><use transform="matrix(0.06234567901234567,0,0,0.06234567901234567,0,0)" xlink:href="#ap"/><use transform="matrix(0.06234567901234567,0,0,0.06234567901234567,12.469135802469133,0)" xlink:href="#ac"/><use transform="matrix(0.06234567901234567,0,0,0.06234567901234567,24.938271604938265,0)" xlink:href="#at"/></g><g id="B"><use transform="matrix(0.06234567901234567,0,0,0.06234567901234567,0,0)" xlink:href="#az"/><use transform="matrix(0.06234567901234567,0,0,0.06234567901234567,18.641358024691353,0)" xlink:href="#ap"/><use transform="matrix(0.06234567901234567,0,0,0.06234567901234567,31.110493827160486,0)" xlink:href="#ac"/><use transform="matrix(0.06234567901234567,0,0,0.06234567901234567,43.57962962962962,0)" xlink:href="#ap"/><use transform="matrix(0.06234567901234567,0,0,0.06234567901234567,56.048765432098755,0)" xlink:href="#ad"/><use transform="matrix(0.06234567901234567,0,0,0.06234567901234567,68.51790123456789,0)" xlink:href="#af"/></g><g id="C"><use transform="matrix(0.06234567901234567,0,0,0.06234567901234567,0,0)" xlink:href="#au"/><use transform="matrix(0.06234567901234567,0,0,0.06234567901234567,16.147530864197527,0)" xlink:href="#aj"/><use transform="matrix(0.06234567901234567,0,0,0.06234567901234567,28.61666666666666,0)" xlink:href="#ay"/><use transform="matrix(0.06234567901234567,0,0,0.06234567901234567,41.08580246913579,0)" xlink:href="#ag"/><use transform="matrix(0.06234567901234567,0,0,0.06234567901234567,48.50493827160493,0)" xlink:href="#aa"/><use transform="matrix(0.06234567901234567,0,0,0.06234567901234567,59.72716049382715,0)" xlink:href="#af"/><use transform="matrix(0.06234567901234567,0,0,0.06234567901234567,72.19629629629628,0)" xlink:href="#aa"/></g><path fill="#3a414a" d="M33 0v-248h34V0H33" id="aF"/><g id="D"><use transform="matrix(0.06234567901234567,0,0,0.06234567901234567,0,0)" xlink:href="#aF"/><use transform="matrix(0.06234567901234567,0,0,0.06234567901234567,6.234567901234566,0)" xlink:href="#ac"/><use transform="matrix(0.06234567901234567,0,0,0.06234567901234567,18.7037037037037,0)" xlink:href="#ab"/><use transform="matrix(0.06234567901234567,0,0,0.06234567901234567,24.938271604938265,0)" xlink:href="#af"/><use transform="matrix(0.06234567901234567,0,0,0.06234567901234567,37.4074074074074,0)" xlink:href="#ag"/><use transform="matrix(0.06234567901234567,0,0,0.06234567901234567,44.82654320987653,0)" xlink:href="#ap"/><use transform="matrix(0.06234567901234567,0,0,0.06234567901234567,57.295679012345666,0)" xlink:href="#ao"/><use transform="matrix(0.06234567901234567,0,0,0.06234567901234567,68.51790123456789,0)" xlink:href="#ab"/></g><path fill="#3a414a" d="M206 0h-36l-40-164L89 0H53L-1-190h32L70-26l43-164h34l41 164 42-164h31" id="aG"/><g id="E"><use transform="matrix(0.06234567901234567,0,0,0.06234567901234567,0,0)" xlink:href="#aG"/><use transform="matrix(0.06234567901234567,0,0,0.06234567901234567,16.147530864197527,0)" xlink:href="#Z"/><use transform="matrix(0.06234567901234567,0,0,0.06234567901234567,21.072839506172834,0)" xlink:href="#ab"/><use transform="matrix(0.06234567901234567,0,0,0.06234567901234567,27.3074074074074,0)" xlink:href="#av"/></g><g id="F"><use transform="matrix(0.06234567901234567,0,0,0.06234567901234567,0,0)" xlink:href="#ax"/><use transform="matrix(0.06234567901234567,0,0,0.06234567901234567,14.96296296296296,0)" xlink:href="#ab"/><use transform="matrix(0.06234567901234567,0,0,0.06234567901234567,21.197530864197525,0)" xlink:href="#ay"/><use transform="matrix(0.06234567901234567,0,0,0.06234567901234567,33.66666666666666,0)" xlink:href="#at"/><use transform="matrix(0.06234567901234567,0,0,0.06234567901234567,46.13580246913579,0)" xlink:href="#af"/><use transform="matrix(0.06234567901234567,0,0,0.06234567901234567,58.60493827160492,0)" xlink:href="#ac"/><use transform="matrix(0.06234567901234567,0,0,0.06234567901234567,71.07407407407405,0)" xlink:href="#ab"/><use transform="matrix(0.06234567901234567,0,0,0.06234567901234567,77.30864197530862,0)" xlink:href="#aa"/></g><path fill="#3a414a" d="M140-251c81 0 123 46 123 126C263-53 228-8 163 1c7 30 30 48 69 40v23c-55 16-95-15-103-61C56-3 17-48 17-125c0-80 42-126 123-126zm0 227c63 0 89-41 89-101s-29-99-89-99c-61 0-89 39-89 99S79-25 140-24" id="aH"/><path fill="#3a414a" d="M9 0v-24l116-142H16v-24h144v24L44-24h123V0H9" id="aI"/><g id="G"><use transform="matrix(0.06234567901234567,0,0,0.06234567901234567,0,0)" xlink:href="#aH"/><use transform="matrix(0.06234567901234567,0,0,0.06234567901234567,17.456790123456788,0)" xlink:href="#ay"/><use transform="matrix(0.06234567901234567,0,0,0.06234567901234567,29.92592592592592,0)" xlink:href="#Z"/><use transform="matrix(0.06234567901234567,0,0,0.06234567901234567,34.85123456790123,0)" xlink:href="#aI"/><use transform="matrix(0.06234567901234567,0,0,0.06234567901234567,46.07345679012345,0)" xlink:href="#af"/><use transform="matrix(0.06234567901234567,0,0,0.06234567901234567,58.542592592592584,0)" xlink:href="#aa"/></g><path fill="#3a414a" d="M143 4C61 4 22-44 18-125c-5-107 100-154 193-111 17 8 29 25 37 43l-32 9c-13-25-37-40-76-40-61 0-88 39-88 99 0 61 29 100 91 101 35 0 62-11 79-27v-45h-74v-28h105v86C228-13 192 4 143 4" id="aJ"/><g id="H"><use transform="matrix(0.06234567901234567,0,0,0.06234567901234567,0,0)" xlink:href="#aJ"/><use transform="matrix(0.06234567901234567,0,0,0.06234567901234567,17.456790123456788,0)" xlink:href="#ag"/><use transform="matrix(0.06234567901234567,0,0,0.06234567901234567,24.875925925925923,0)" xlink:href="#ap"/><use transform="matrix(0.06234567901234567,0,0,0.06234567901234567,37.34506172839505,0)" xlink:href="#at"/><use transform="matrix(0.06234567901234567,0,0,0.06234567901234567,49.814197530864185,0)" xlink:href="#Z"/><use transform="matrix(0.06234567901234567,0,0,0.06234567901234567,54.73950617283949,0)" xlink:href="#ac"/><use transform="matrix(0.06234567901234567,0,0,0.06234567901234567,67.20864197530862,0)" xlink:href="#ad"/></g><path fill="#3a414a" d="M210-169c-67 3-38 105-44 169h-31v-121c0-29-5-50-35-48C34-165 62-65 56 0H25l-1-190h30c1 10-1 24 2 32 10-44 99-50 107 0 11-21 27-35 58-36 85-2 47 119 55 194h-31v-121c0-29-5-49-35-48" id="aK"/><g id="I"><use transform="matrix(0.06234567901234567,0,0,0.06234567901234567,0,0)" xlink:href="#ah"/><use transform="matrix(0.06234567901234567,0,0,0.06234567901234567,16.147530864197527,0)" xlink:href="#af"/><use transform="matrix(0.06234567901234567,0,0,0.06234567901234567,28.61666666666666,0)" xlink:href="#ao"/><use transform="matrix(0.06234567901234567,0,0,0.06234567901234567,39.83888888888888,0)" xlink:href="#aj"/><use transform="matrix(0.06234567901234567,0,0,0.06234567901234567,52.308024691358014,0)" xlink:href="#aK"/><use transform="matrix(0.06234567901234567,0,0,0.06234567901234567,70.94938271604937,0)" xlink:href="#aK"/><use transform="matrix(0.06234567901234567,0,0,0.06234567901234567,89.59074074074073,0)" xlink:href="#af"/><use transform="matrix(0.06234567901234567,0,0,0.06234567901234567,102.05987654320987,0)" xlink:href="#ac"/><use transform="matrix(0.06234567901234567,0,0,0.06234567901234567,114.529012345679,0)" xlink:href="#at"/><use transform="matrix(0.06234567901234567,0,0,0.06234567901234567,126.99814814814815,0)" xlink:href="#ap"/><use transform="matrix(0.06234567901234567,0,0,0.06234567901234567,139.4672839506173,0)" xlink:href="#ab"/><use transform="matrix(0.06234567901234567,0,0,0.06234567901234567,145.70185185185184,0)" xlink:href="#Z"/><use transform="matrix(0.06234567901234567,0,0,0.06234567901234567,150.62716049382715,0)" xlink:href="#aj"/><use transform="matrix(0.06234567901234567,0,0,0.06234567901234567,163.0962962962963,0)" xlink:href="#ac"/><use transform="matrix(0.06234567901234567,0,0,0.06234567901234567,175.56543209876543,0)" xlink:href="#aa"/></g><g id="J"><use transform="matrix(0.06234567901234567,0,0,0.06234567901234567,0,0)" xlink:href="#am"/><use transform="matrix(0.06234567901234567,0,0,0.06234567901234567,14.96296296296296,0)" xlink:href="#at"/><use transform="matrix(0.06234567901234567,0,0,0.06234567901234567,27.432098765432094,0)" xlink:href="#aK"/><use transform="matrix(0.06234567901234567,0,0,0.06234567901234567,46.073456790123444,0)" xlink:href="#Z"/><use transform="matrix(0.06234567901234567,0,0,0.06234567901234567,50.99876543209875,0)" xlink:href="#ac"/><use transform="matrix(0.06234567901234567,0,0,0.06234567901234567,63.46790123456788,0)" xlink:href="#Z"/><use transform="matrix(0.06234567901234567,0,0,0.06234567901234567,68.3932098765432,0)" xlink:href="#aa"/><use transform="matrix(0.06234567901234567,0,0,0.06234567901234567,79.61543209876541,0)" xlink:href="#ab"/><use transform="matrix(0.06234567901234567,0,0,0.06234567901234567,85.84999999999998,0)" xlink:href="#ag"/><use transform="matrix(0.06234567901234567,0,0,0.06234567901234567,93.26913580246911,0)" xlink:href="#ap"/><use transform="matrix(0.06234567901234567,0,0,0.06234567901234567,105.73827160493823,0)" xlink:href="#ab"/><use transform="matrix(0.06234567901234567,0,0,0.06234567901234567,111.9728395061728,0)" xlink:href="#aj"/><use transform="matrix(0.06234567901234567,0,0,0.06234567901234567,124.44197530864193,0)" xlink:href="#ag"/></g><g id="K"><use transform="matrix(0.06234567901234567,0,0,0.06234567901234567,0,0)" xlink:href="#az"/><use transform="matrix(0.06234567901234567,0,0,0.06234567901234567,18.641358024691353,0)" xlink:href="#ap"/><use transform="matrix(0.06234567901234567,0,0,0.06234567901234567,31.110493827160486,0)" xlink:href="#ac"/><use transform="matrix(0.06234567901234567,0,0,0.06234567901234567,43.57962962962962,0)" xlink:href="#ap"/><use transform="matrix(0.06234567901234567,0,0,0.06234567901234567,56.048765432098755,0)" xlink:href="#ad"/><use transform="matrix(0.06234567901234567,0,0,0.06234567901234567,68.51790123456789,0)" xlink:href="#af"/></g><g id="L"><use transform="matrix(0.06234567901234567,0,0,0.06234567901234567,0,0)" xlink:href="#ae"/><use transform="matrix(0.06234567901234567,0,0,0.06234567901234567,16.147530864197527,0)" xlink:href="#aa"/><use transform="matrix(0.06234567901234567,0,0,0.06234567901234567,27.36975308641975,0)" xlink:href="#af"/><use transform="matrix(0.06234567901234567,0,0,0.06234567901234567,39.83888888888888,0)" xlink:href="#ag"/></g><g id="M"><use transform="matrix(0.06234567901234567,0,0,0.06234567901234567,0,0)" xlink:href="#am"/><use transform="matrix(0.06234567901234567,0,0,0.06234567901234567,14.96296296296296,0)" xlink:href="#ao"/><use transform="matrix(0.06234567901234567,0,0,0.06234567901234567,26.18518518518518,0)" xlink:href="#ao"/><use transform="matrix(0.06234567901234567,0,0,0.06234567901234567,37.4074074074074,0)" xlink:href="#aj"/><use transform="matrix(0.06234567901234567,0,0,0.06234567901234567,49.87654320987653,0)" xlink:href="#ay"/><use transform="matrix(0.06234567901234567,0,0,0.06234567901234567,62.34567901234566,0)" xlink:href="#ac"/><use transform="matrix(0.06234567901234567,0,0,0.06234567901234567,74.8148148148148,0)" xlink:href="#ab"/><use transform="matrix(0.06234567901234567,0,0,0.06234567901234567,81.04938271604937,0)" xlink:href="#aa"/></g><g id="N"><use transform="matrix(0.06234567901234567,0,0,0.06234567901234567,0,0)" xlink:href="#au"/><use transform="matrix(0.06234567901234567,0,0,0.06234567901234567,16.147530864197527,0)" xlink:href="#ak"/><use transform="matrix(0.06234567901234567,0,0,0.06234567901234567,33.60432098765432,0)" xlink:href="#ac"/><use transform="matrix(0.06234567901234567,0,0,0.06234567901234567,46.07345679012345,0)" xlink:href="#ab"/><use transform="matrix(0.06234567901234567,0,0,0.06234567901234567,52.308024691358014,0)" xlink:href="#af"/><use transform="matrix(0.06234567901234567,0,0,0.06234567901234567,64.77716049382715,0)" xlink:href="#ac"/><use transform="matrix(0.06234567901234567,0,0,0.06234567901234567,77.2462962962963,0)" xlink:href="#ab"/></g><g id="O"><use transform="matrix(0.06234567901234567,0,0,0.06234567901234567,0,0)" xlink:href="#ak"/><use transform="matrix(0.06234567901234567,0,0,0.06234567901234567,17.456790123456788,0)" xlink:href="#aA"/><use transform="matrix(0.06234567901234567,0,0,0.06234567901234567,28.679012345679006,0)" xlink:href="#af"/><use transform="matrix(0.06234567901234567,0,0,0.06234567901234567,41.14814814814814,0)" xlink:href="#ag"/><use transform="matrix(0.06234567901234567,0,0,0.06234567901234567,48.56728395061727,0)" xlink:href="#aa"/><use transform="matrix(0.06234567901234567,0,0,0.06234567901234567,59.789506172839495,0)" xlink:href="#Z"/><use transform="matrix(0.06234567901234567,0,0,0.06234567901234567,64.7148148148148,0)" xlink:href="#ad"/><use transform="matrix(0.06234567901234567,0,0,0.06234567901234567,77.18395061728393,0)" xlink:href="#av"/><use transform="matrix(0.06234567901234567,0,0,0.06234567901234567,89.65308641975307,0)" xlink:href="#ab"/></g><g id="P"><use transform="matrix(0.06234567901234567,0,0,0.06234567901234567,0,0)" xlink:href="#aq"/><use transform="matrix(0.06234567901234567,0,0,0.06234567901234567,12.469135802469133,0)" xlink:href="#aj"/><use transform="matrix(0.06234567901234567,0,0,0.06234567901234567,24.938271604938265,0)" xlink:href="#ad"/><use transform="matrix(0.06234567901234567,0,0,0.06234567901234567,37.4074074074074,0)" xlink:href="#aj"/><use transform="matrix(0.06234567901234567,0,0,0.06234567901234567,49.87654320987653,0)" xlink:href="#ay"/><use transform="matrix(0.06234567901234567,0,0,0.06234567901234567,62.34567901234566,0)" xlink:href="#ab"/></g><g id="Q"><use transform="matrix(0.2222222222222222,0,0,0.2222222222222222,0,0)" xlink:href="#ak"/><use transform="matrix(0.2222222222222222,0,0,0.2222222222222222,62.22222222222222,0)" xlink:href="#ac"/><use transform="matrix(0.2222222222222222,0,0,0.2222222222222222,106.66666666666666,0)" xlink:href="#an"/><use transform="matrix(0.2222222222222222,0,0,0.2222222222222222,124.22222222222221,0)" xlink:href="#Z"/><use transform="matrix(0.2222222222222222,0,0,0.2222222222222222,141.77777777777777,0)" xlink:href="#ac"/><use transform="matrix(0.2222222222222222,0,0,0.2222222222222222,186.22222222222223,0)" xlink:href="#af"/></g><g id="R"><use transform="matrix(0.2222222222222222,0,0,0.2222222222222222,0,0)" xlink:href="#aq"/><use transform="matrix(0.2222222222222222,0,0,0.2222222222222222,44.44444444444444,0)" xlink:href="#af"/><use transform="matrix(0.2222222222222222,0,0,0.2222222222222222,88.88888888888889,0)" xlink:href="#ap"/><use transform="matrix(0.2222222222222222,0,0,0.2222222222222222,133.33333333333331,0)" xlink:href="#ag"/><use transform="matrix(0.2222222222222222,0,0,0.2222222222222222,159.77777777777777,0)" xlink:href="#ac"/><use transform="matrix(0.2222222222222222,0,0,0.2222222222222222,204.22222222222223,0)" xlink:href="#Z"/><use transform="matrix(0.2222222222222222,0,0,0.2222222222222222,221.77777777777777,0)" xlink:href="#ac"/><use transform="matrix(0.2222222222222222,0,0,0.2222222222222222,266.22222222222223,0)" xlink:href="#ad"/></g><path fill="#3a414a" d="M101-234c-31-9-42 10-38 44h38v23H63V0H32v-167H5v-23h27c-7-52 17-82 69-68v24" id="aL"/><g id="S"><use transform="matrix(0.2222222222222222,0,0,0.2222222222222222,0,0)" xlink:href="#aC"/><use transform="matrix(0.2222222222222222,0,0,0.2222222222222222,53.33333333333333,0)" xlink:href="#an"/><use transform="matrix(0.2222222222222222,0,0,0.2222222222222222,70.88888888888889,0)" xlink:href="#ap"/><use transform="matrix(0.2222222222222222,0,0,0.2222222222222222,115.33333333333333,0)" xlink:href="#ab"/><use transform="matrix(0.2222222222222222,0,0,0.2222222222222222,137.55555555555554,0)" xlink:href="#aL"/><use transform="matrix(0.2222222222222222,0,0,0.2222222222222222,159.77777777777777,0)" xlink:href="#aj"/><use transform="matrix(0.2222222222222222,0,0,0.2222222222222222,204.22222222222223,0)" xlink:href="#ag"/><use transform="matrix(0.2222222222222222,0,0,0.2222222222222222,230.6666666666667,0)" xlink:href="#aK"/></g><path fill="#3a414a" d="M30-248c118-7 216 8 213 122C240-48 200 0 122 0H30v-248zM63-27c89 8 146-16 146-99s-60-101-146-95v194" id="aM"/><g id="T"><use transform="matrix(0.2222222222222222,0,0,0.2222222222222222,0,0)" xlink:href="#aJ"/><use transform="matrix(0.2222222222222222,0,0,0.2222222222222222,62.22222222222222,0)" xlink:href="#aM"/><use transform="matrix(0.2222222222222222,0,0,0.2222222222222222,119.77777777777777,0)" xlink:href="#aC"/></g><path fill="#3a414a" d="M16-82v-28h88v28H16" id="aN"/><use transform="matrix(0.2222222222222222,0,0,0.2222222222222222,0,0)" xlink:href="#aN" id="U"/><g id="V"><use transform="matrix(0.2222222222222222,0,0,0.2222222222222222,0,0)" xlink:href="#aJ"/><use transform="matrix(0.2222222222222222,0,0,0.2222222222222222,62.22222222222222,0)" xlink:href="#ag"/><use transform="matrix(0.2222222222222222,0,0,0.2222222222222222,88.66666666666666,0)" xlink:href="#aj"/><use transform="matrix(0.2222222222222222,0,0,0.2222222222222222,133.1111111111111,0)" xlink:href="#ay"/><use transform="matrix(0.2222222222222222,0,0,0.2222222222222222,177.55555555555554,0)" xlink:href="#al"/></g><path fill="#3a414a" d="M101-251c68 0 85 55 85 127S166 4 100 4C33 4 14-52 14-124c0-73 17-127 87-127zm-1 229c47 0 54-49 54-102s-4-102-53-102c-51 0-55 48-55 102 0 53 5 102 54 102" id="aO"/><path fill="#3a414a" d="M54-142c48-35 137-8 131 61C196 18 31 33 14-55l32-4c7 23 22 37 52 37 35-1 51-22 54-58 4-55-73-65-99-34H22l8-134h141v27H59" id="aP"/><g id="W"><use transform="matrix(0.2222222222222222,0,0,0.2222222222222222,0,0)" xlink:href="#aO"/><use transform="matrix(0.2222222222222222,0,0,0.2222222222222222,44.44444444444444,0)" xlink:href="#aP"/></g></defs></g></svg>